<svg xmlns="http://www.w3.org/2000/svg" xmlns:xlink="http://www.w3.org/1999/xlink" viewBox="0,0,256,256" width="64px" height="64px"><g fill="none" fill-rule="nonzero" stroke="none" stroke-width="1" stroke-linecap="butt" stroke-linejoin="miter" stroke-miterlimit="10" stroke-dasharray="" stroke-dashoffset="0" font-family="none" font-weight="none" font-size="none" text-anchor="none" style="mix-blend-mode: normal"><g transform="scale(4,4)"><path d="M54,20v24c0,2.25 -0.74,4.32 -2,5.99v0.01c-1.69,2.24 -4.29,3.75 -7.25,3.97c-0.24,0.02 -0.5,0.03 -0.75,0.03h-24c-5.52,0 -10,-4.48 -10,-10v-24c0,-0.25 0.01,-0.51 0.03,-0.75c0.22,-2.96 1.73,-5.56 3.97,-7.25h0.01c1.67,-1.26 3.74,-2 5.99,-2h24c5.52,0 10,4.48 10,10z" fill="#9c34c2"></path><path d="M54,29.36v14.64c0,2.25 -0.74,4.32 -2,5.99v0.01c-1.69,2.24 -4.29,3.75 -7.25,3.97c-0.24,0.02 -0.5,0.03 -0.75,0.03h-24c-5.52,0 -10,-4.48 -10,-10v-24c0,-0.25 0.01,-0.51 0.03,-0.75c0.22,-2.96 1.73,-5.56 3.97,-7.25h0.01c1.67,-1.26 3.74,-2 5.99,-2h14.64c8.29,4.29 15.07,11.07 19.36,19.36z" fill="#bc379c"></path><path d="M52,49.99v0.01c-1.69,2.24 -4.29,3.75 -7.25,3.97c-0.24,0.02 -0.5,0.03 -0.75,0.03h-24c-5.52,0 -10,-4.48 -10,-10v-24c0,-0.25 0.01,-0.51 0.03,-0.75c0.22,-2.96 1.73,-5.56 3.97,-7.25h0.01c20.98,0.01 37.98,17.01 37.99,37.99z" fill="#dd3975"></path><path d="M45,50c0,1.34 -0.09,2.67 -0.25,3.97c-0.24,0.02 -0.5,0.03 -0.75,0.03h-24c-5.52,0 -10,-4.48 -10,-10v-24c0,-0.25 0.01,-0.51 0.03,-0.75c1.3,-0.16 2.63,-0.25 3.97,-0.25c17.12,0 31,13.88 31,31z" fill="#fd3c4f"></path><path d="M38,50c0,1.36 -0.11,2.7 -0.34,4h-17.66c-5.52,0 -10,-4.48 -10,-10v-17.66c1.3,-0.23 2.64,-0.34 4,-0.34c13.25,0 24,10.75 24,24z" fill="#fe6d42"></path><path d="M32,50c0,1.37 -0.15,2.71 -0.46,4h-11.54c-5.52,0 -10,-4.48 -10,-10v-11.54c1.29,-0.31 2.63,-0.46 4,-0.46c9.94,0 18,8.06 18,18z" fill="#fe9d36"></path><path d="M25,50c0,1.41 -0.27,2.76 -0.75,4h-4.25c-5.52,0 -10,-4.48 -10,-10v-4.25c1.24,-0.48 2.59,-0.75 4,-0.75c6.08,0 11,4.92 11,11z" fill="#ffce29"></path><ellipse cx="32" cy="61" rx="20" ry="3" fill="#000000" opacity="0.3"></ellipse><g><path d="M31,15c2.761,0 5,-2.238 5,-5h-16c-5.523,0 -10,4.477 -10,10v22c2.761,0 5,-2.238 5,-5v-17c0,-2.757 2.243,-5 5,-5z" fill="#ffffff" opacity="0.3"></path><path d="M54,44v-22c-2.761,0 -5,2.238 -5,5v17c0,2.757 -2.243,5 -5,5h-11c-2.761,0 -5,2.238 -5,5h16c5.523,0 10,-4.477 10,-10z" fill="#000000" opacity="0.15"></path></g><path d="M14,21.5c-0.829,0 -1.5,-0.671 -1.5,-1.5c0,-4.136 3.364,-7.5 7.5,-7.5c0.829,0 1.5,0.671 1.5,1.5c0,0.829 -0.671,1.5 -1.5,1.5c-2.481,0 -4.5,2.019 -4.5,4.5c0,0.829 -0.671,1.5 -1.5,1.5z" fill="#ffffff"></path><path d="M39.5,48h-15c-4.687,0 -8.5,-3.813 -8.5,-8.5v-15c0,-4.687 3.813,-8.5 8.5,-8.5h15c4.687,0 8.5,3.813 8.5,8.5v15c0,4.687 -3.813,8.5 -8.5,8.5zM24.5,19c-3.033,0 -5.5,2.467 -5.5,5.5v15c0,3.033 2.467,5.5 5.5,5.5h15c3.033,0 5.5,-2.467 5.5,-5.5v-15c0,-3.033 -2.467,-5.5 -5.5,-5.5z" fill="#ffffff"></path><path d="M32,40c-4.411,0 -8,-3.589 -8,-8c0,-4.411 3.589,-8 8,-8c4.411,0 8,3.589 8,8c0,4.411 -3.589,8 -8,8zM32,27c-2.757,0 -5,2.243 -5,5c0,2.757 2.243,5 5,5c2.757,0 5,-2.243 5,-5c0,-2.757 -2.243,-5 -5,-5z" fill="#ffffff"></path><circle cx="40.5" cy="23.5" r="2" fill="#ffffff"></circle></g></g></svg>