<svg xmlns="http://www.w3.org/2000/svg" xmlns:xlink="http://www.w3.org/1999/xlink" viewBox="0,0,256,256" width="64px" height="64px"><g fill="none" fill-rule="nonzero" stroke="none" stroke-width="none" stroke-linecap="none" stroke-linejoin="none" stroke-miterlimit="10" stroke-dasharray="" stroke-dashoffset="0" font-family="none" font-weight="none" font-size="none" text-anchor="none" style="mix-blend-mode: normal"><g transform="scale(4,4)"><ellipse cx="32" cy="61" rx="24" ry="3" fill="#000000" stroke="none" stroke-width="1" stroke-linecap="butt" stroke-linejoin="miter" opacity="0.3"></ellipse><path d="M58,41.664c0,4.13 -2.878,7.686 -6.911,8.575c-4.148,0.915 -10.349,1.761 -19.089,1.761c-8.74,0 -14.941,-0.846 -19.089,-1.76c-4.033,-0.889 -6.911,-4.446 -6.911,-8.576v-17.87c0,-3.898 2.564,-7.332 6.307,-8.422c4.141,-1.206 10.518,-2.372 19.693,-2.372c9.175,0 15.552,1.166 19.693,2.372c3.743,1.089 6.307,4.523 6.307,8.422z" fill="#ce0404" stroke="none" stroke-width="1" stroke-linecap="butt" stroke-linejoin="miter"></path><path d="M25,40.265v-16.526c0,-1.598 1.781,-2.55 3.11,-1.664l12.394,8.271c1.187,0.792 1.186,2.537 -0.001,3.328l-12.394,8.255c-1.329,0.886 -3.109,-0.067 -3.109,-1.664z" fill="#ffffff" stroke="none" stroke-width="1" stroke-linecap="butt" stroke-linejoin="miter"></path><path d="M53,34v7.665c0,1.786 -1.229,3.304 -2.988,3.692c-3.401,0.749 -9.286,1.643 -18.012,1.643c-2.727,0 -4.936,2.187 -4.99,4.901c1.564,0.063 3.222,0.099 4.99,0.099c8.74,0 14.941,-0.846 19.089,-1.76c4.033,-0.889 6.911,-4.446 6.911,-8.576v-12.664c-2.761,0 -5,2.239 -5,5z" fill="#000000" stroke="none" stroke-width="1" stroke-linecap="butt" stroke-linejoin="miter" opacity="0.15"></path><path d="M32,18c2.719,0 4.921,-2.174 4.988,-4.878c-1.563,-0.078 -3.222,-0.122 -4.988,-0.122c-9.175,0 -15.552,1.166 -19.693,2.372c-3.743,1.089 -6.307,4.523 -6.307,8.422v14.206c2.761,0 5,-2.239 5,-5v-9.207c0,-1.668 1.112,-3.158 2.704,-3.621c3.404,-0.991 9.342,-2.172 18.296,-2.172z" fill="#ffffff" stroke="none" stroke-width="1" stroke-linecap="butt" stroke-linejoin="miter" opacity="0.3"></path><path d="M9.5,29v-5.207c0,-2.331 1.557,-4.413 3.786,-5.062" fill="none" stroke="#ffffff" stroke-width="3" stroke-linecap="round" stroke-linejoin="round"></path></g></g></svg>